<svg width="597" height="351" viewBox="0 0 597 351" fill="none" xmlns="http://www.w3.org/2000/svg">
<path d="M404.467 250.902C404.467 264.9 401.863 278.002 396.654 290.209C391.446 302.253 384.285 312.833 375.17 321.947C366.218 330.899 355.639 337.979 343.432 343.188C331.387 348.396 318.448 351 304.613 351H0.414062V300.951H304.613C311.612 300.951 318.122 299.649 324.145 297.045C330.167 294.441 335.375 290.86 339.77 286.303C344.327 281.745 347.908 276.456 350.512 270.434C353.116 264.249 354.418 257.738 354.418 250.902C354.418 244.066 353.116 237.637 350.512 231.615C347.908 225.593 344.327 220.303 339.77 215.746C335.375 211.189 330.167 207.608 324.145 205.004C318.122 202.4 311.612 201.098 304.613 201.098H100.512C86.8398 201.098 73.9004 198.493 61.6934 193.285C49.4863 188.077 38.8255 180.997 29.7109 172.045C20.7591 162.93 13.5977 152.27 8.22656 140.062C3.01823 127.855 0.414062 114.835 0.414062 101C0.414062 87.3281 3.01823 74.3887 8.22656 62.1816C13.5977 49.9746 20.7591 39.3952 29.7109 30.4434C38.8255 21.3288 49.4863 14.1673 61.6934 8.95898C73.9004 3.58789 86.8398 0.902344 100.512 0.902344H379.564V50.9512H100.512C93.6758 50.9512 87.1654 52.2533 80.9805 54.8574C74.9583 57.4616 69.6686 61.0423 65.1113 65.5996C60.554 70.1569 56.9733 75.528 54.3691 81.7129C51.765 87.735 50.4629 94.1641 50.4629 101C50.4629 107.836 51.765 114.346 54.3691 120.531C56.9733 126.553 60.554 131.843 65.1113 136.4C69.6686 140.958 74.9583 144.538 80.9805 147.143C87.1654 149.747 93.6758 151.049 100.512 151.049H304.613C318.448 151.049 331.387 153.734 343.432 159.105C355.639 164.314 366.218 171.475 375.17 180.59C384.285 189.542 391.446 200.121 396.654 212.328C401.863 224.372 404.467 237.23 404.467 250.902Z" fill="white"/>
<path d="M596.59 175.951C596.59 200.202 592.684 222.989 584.871 244.311C577.221 265.632 566.316 284.187 552.156 299.975C537.996 315.762 520.988 328.214 501.131 337.328C481.437 346.443 459.546 351 435.457 351H258.943V300.951H435.457C452.71 300.951 468.172 297.696 481.844 291.186C495.678 284.675 507.316 275.805 516.756 264.574C526.359 253.181 533.683 239.916 538.729 224.779C543.937 209.48 546.541 193.204 546.541 175.951C546.541 158.699 543.937 142.504 538.729 127.367C533.683 112.23 526.359 99.0469 516.756 87.8164C507.316 76.4232 495.678 67.4714 481.844 60.9609C468.172 54.2878 452.71 50.9512 435.457 50.9512H234.041V351H183.992V0.902344H435.457C459.546 0.902344 481.437 5.54102 501.131 14.8184C520.988 23.9329 537.996 36.4655 552.156 52.416C566.316 68.2038 577.221 86.7585 584.871 108.08C592.684 129.239 596.59 151.863 596.59 175.951Z" fill="white"/>
</svg>
